# xmcd CD database file
# Copyright (C) 1995-1998 Ti Kan
#
# Track frame offsets:
#	150
#	14967
#	30822
#	45430
#	63005
#	78987
#	93460
#	106630
#	119772
#	135825
#
# Disc length: 2028 seconds
#
# Revision: 1
# Processed by: cddbd v1.4b41PL1 Copyright (c) Steve Scherf et al.
# Submitted via: CDex 1.30
#
DISCID=6f07ea0a
DTITLE=Steve Wariner - Super Hits
DYEAR=2001
DGENRE=Country
TTITLE0=If I Didn't Love You
TTITLE1=All Roads Lead To You
TTITLE2=Lonely Women
TTITLE3=Leave Him Out Of This
TTITLE4=Why Goodbye
TTITLE5=Midnight Fire
TTITLE6=By Now
TTITLE7=Your Memory
TTITLE8=Kansas City Lights
TTITLE9=The Tips Of My Fingers
EXTD=YEAR: 2001  ID3G:   2
EXTT0=
EXTT1=
EXTT2=
EXTT3=
EXTT4=
EXTT5=
EXTT6=
EXTT7=
EXTT8=
EXTT9=
PLAYORDER=
